<?xml version="1.0" standalone="no"?>
<!DOCTYPE svg PUBLIC "-//W3C//DTD SVG 20010904//EN"
 "http://www.w3.org/TR/2001/REC-SVG-20010904/DTD/svg10.dtd">
<svg version="1.0" xmlns="http://www.w3.org/2000/svg"
 width="659.000000pt" height="659.000000pt" viewBox="0 0 659.000000 659.000000"
 preserveAspectRatio="xMidYMid meet">
<metadata>
Created by potrace 1.14, written by Peter Selinger 2001-2017
</metadata>
<g transform="translate(0.000000,659.000000) scale(0.100000,-0.100000)"
fill="#000000" stroke="none">
<path d="M58 6468 c58 -110 121 -232 265 -508 38 -74 89 -171 112 -215 23 -44
80 -152 125 -240 97 -188 184 -355 250 -480 26 -49 82 -157 125 -240 43 -82
101 -195 130 -250 29 -55 87 -167 130 -250 43 -82 97 -186 120 -230 23 -44 75
-143 115 -220 40 -77 96 -185 125 -240 29 -55 90 -172 135 -260 80 -155 151
-291 250 -480 41 -79 141 -271 247 -475 l33 -64 0 -1138 0 -1138 438 0 c758
-1 827 -1 1277 -1 l440 1 0 1133 c-1 764 3 1140 10 1157 9 22 110 219 283 550
30 58 86 166 124 240 39 74 99 189 133 255 34 66 97 188 140 270 43 83 101
195 130 250 29 55 92 177 140 270 48 94 115 224 150 290 34 66 97 188 140 270
43 83 108 209 145 280 37 72 100 193 140 270 40 77 98 190 130 250 32 61 99
191 150 290 51 99 116 225 145 280 29 55 90 172 135 260 45 88 86 165 90 170
4 6 11 20 14 33 l7 22 -1151 -2 -1151 -3 -135 -290 c-75 -159 -149 -319 -166
-355 -16 -36 -42 -92 -58 -125 -15 -33 -44 -94 -63 -135 -43 -93 -165 -355
-222 -475 -23 -49 -68 -146 -100 -215 -32 -69 -85 -183 -119 -255 -34 -71 -73
-153 -86 -182 l-23 -52 -35 72 c-19 40 -66 140 -104 222 -132 280 -145 310
-233 495 -48 102 -103 219 -122 260 -80 171 -116 248 -143 305 -15 33 -62 131
-104 219 -42 87 -76 160 -76 162 0 1 -30 65 -66 141 -36 76 -73 155 -81 176
l-15 37 -1164 0 -1165 0 59 -112z"/>
</g>
</svg>
